<?xml version="1.0" standalone="no"?><!DOCTYPE svg PUBLIC "-//W3C//DTD SVG 1.1//EN" "http://www.w3.org/Graphics/SVG/1.1/DTD/svg11.dtd"><svg class="icon" width="16px" height="16.00px" viewBox="0 0 1024 1024" version="1.1" xmlns="http://www.w3.org/2000/svg"><path fill="#858C9E" d="M777.762853 884.226606c19.230993 0 34.800597 16.341177 34.800597 36.518728 0 20.147876-15.568581 36.489052-34.800597 36.489052L162.427346 957.234387c-19.206434 0-34.776038-16.341177-34.776038-36.489052 0-20.178575 15.57472-36.518728 34.776038-36.518728L777.762853 884.226606 777.762853 884.226606zM160.801313 834.961576l83.588767-234.281861 136.232754 142.984528L160.801313 834.961576 160.801313 834.961576zM408.55807 716.733894 271.167956 572.576657 644.655276 183.744861l137.384997 144.156214L408.55807 716.733894 408.55807 716.733894zM807.671023 297.945833 670.286026 153.789619l68.721151-72.076572c22.77061-23.864524 59.637262-23.864524 82.406848 0l54.949496 57.654095c22.77061 23.893176 22.77061 62.638619 0 86.531795L807.671023 297.945833 807.671023 297.945833z" /></svg>